<?xml version="1.0" encoding="utf-8"?>
<!-- Generator: Adobe Illustrator 16.0.0, SVG Export Plug-In . SVG Version: 6.00 Build 0)  -->
<!DOCTYPE svg PUBLIC "-//W3C//DTD SVG 1.1//EN" "http://www.w3.org/Graphics/SVG/1.1/DTD/svg11.dtd">
<svg version="1.1" id="Layer_1" xmlns="http://www.w3.org/2000/svg" xmlns:xlink="http://www.w3.org/1999/xlink" x="0px" y="0px"
	 width="60px" height="60px" viewBox="0 0 60 60" enable-background="new 0 0 60 60" xml:space="preserve">
<g>
	<path fill="#BF9F37" d="M30,21.08L30,21.08H19.323L23.699,47H30H30h6.3l4.377-25.92H30z M23.106,35.8l-1.566-9.28h16.921
		l-1.566,9.28H23.106z"/>
	<path fill="#BF9F37" d="M40.561,17.88h-1.92L38,15h-8h-8l-0.641,2.88h-1.92L18.8,19.8H30h11.199L40.561,17.88z M29.955,18.672
		c-1.414,0-2.561-0.573-2.561-1.28c0-0.707,1.146-1.28,2.561-1.28c1.413,0,2.559,0.573,2.559,1.28
		C32.514,18.099,31.367,18.672,29.955,18.672z"/>
</g>
</svg>
