<?xml version="1.0" encoding="utf-8"?>
<!-- Generator: Adobe Illustrator 16.0.0, SVG Export Plug-In . SVG Version: 6.00 Build 0)  -->
<!DOCTYPE svg PUBLIC "-//W3C//DTD SVG 1.1//EN" "http://www.w3.org/Graphics/SVG/1.1/DTD/svg11.dtd">
<svg version="1.1" id="Layer_1" xmlns="http://www.w3.org/2000/svg" xmlns:xlink="http://www.w3.org/1999/xlink" x="0px" y="0px"
	 width="460px" height="100px" viewBox="0 0 460 100" enable-background="new 0 0 460 100" xml:space="preserve">
<g>
	<g>
		<g>
			<path fill-rule="evenodd" clip-rule="evenodd" fill="#FFFFFF" d="M395.945,61.045c-0.736-3.621-1.285-7.298-4.266-10.352
				c-1.447-0.731-3.129-2.018-5.646-2.14c-0.545,4.976-0.115,9.833-0.297,14.769c4.758,1.218,9.312,2.213,13.986,0.239
				c4.74-2,6.422-6.461,8.445-11.064c1.197,3.176,1.381,9.542,0.646,15.296c-12.795-1.189-25.615-2.143-38.947-4.14
				c1.902-2.61,4.213-0.945,6.023-2.245c1.121-1.212,1.738-2.898,1.715-4.969c-0.08-6.421-0.041-12.843-0.02-19.266
				c0.004-1.353-0.334-2.588-0.697-3.889c-0.602-2.145-1.641-3.445-3.928-3.552c-0.938-0.043-1.744-0.326-2.447-1.503
				c2.635-0.755,5.17-0.475,7.648-0.044c0.85,0.147,1.682,0.532,2.584,0.527c7.125-0.034,14.08,1.771,21.193,1.95
				c1.881,0.045,3.693,1.059,5.627,0.803c0.99,3.642,0.926,11.52-0.088,14.279c-1.053-0.015-1.01-0.826-1.162-1.541
				c-0.559-2.612-1.553-5.087-3.076-7.252c-2.699-3.839-6.789-5.035-11.213-5.374c-1.908-0.145-3.861,0.108-6.002-1.155
				c-0.52,5.506-0.119,10.651-0.295,15.958c2.039,0.629,3.926,0.359,5.676,0.198c3.496-2.374,3.527-6.341,4.682-9.683
				c0.564,0.199,1.037,0.269,1.047,0.383c0.73,7.429,0.096,14.881,0.338,22.319C397.49,60.168,397.395,60.803,395.945,61.045z"/>
			<path fill-rule="evenodd" clip-rule="evenodd" fill="#FFFFFF" d="M252.652,27.147c0.971,0.013,1.207,0.353,1.264,0.829
				c0.412,3.533,0.033,20.85-0.496,23.092c-1.027,0.156-1.318-0.493-1.322-1.309c-0.014-3.867-1.734-6.805-5.035-9.172
				c-1.262,0-2.738,0-4.496,0c-0.59,4.502-0.092,9.088-0.32,13.958c2.459,0.455,4.82,0.118,7.148,0.258
				c2.449,0.147,4.586-0.677,6.854-1.506c2.471-0.904,4.008-2.438,5.133-4.582c0.959-1.827,2.156-3.554,2.465-5.688
				c0.1-0.712,0.631-1.248,1.352-1.48c0.65,0.713,0.475,1.491,0.477,2.215c0.016,4.155,0.008,8.311,0.008,12.697
				c-13.252,0-26.174,0-39.168,0c1.272-1.563,1.272-1.563,4.385-1.819c2.49-1.55,3.293-3.878,3.24-6.8
				c-0.109-6.122-0.018-12.247-0.039-18.37c-0.01-3.52-0.133-3.745-2.854-6.623c-2.955-0.385-3.039-0.412-4.818-1.57
				c3.152-0.842,24.186-1.115,37.721-0.488c0.836,3.025,0.936,9.463,0.211,14.005c-1.209-0.337-1.35-1.306-1.547-2.344
				c-0.455-2.369-1.545-4.444-3.102-6.296c-2.027-2.418-4.449-3.82-7.74-3.654c-2.828,0.142-5.672,0.02-8.51,0.039
				c-0.266,0.003-0.529,0.178-0.979,0.338c0,5.087,0,10.239,0,15.397C248.693,38.032,250.594,35.919,252.652,27.147z"/>
			<path fill-rule="evenodd" clip-rule="evenodd" fill="#FFFFFF" d="M358.312,28.665c0.818-0.745,1.695-1.539,3.041-2.76
				c0.164,5.665,1.668,10.746,0.838,16.123c-1.678,0.418-2.256-0.642-2.416-1.818c-0.463-3.426-2.398-5.934-4.635-8.397
				c-3.742-4.12-8.264-6.098-13.818-5.707c-0.744,0.053-1.49,0.075-2.334,0.115c-1.039,0.712-2.133,1.459-3.119,2.135
				c-2.293,3.579-3.316,7.366-3.061,11.508c0.1,1.636,0.088,3.288,0.004,4.925c-0.303,5.75,1.506,10.52,6.684,14.082
				c4.84,1.732,9.875,1.995,14.648-1.352c0-2.723,0-5.091,0-7.502c-0.609-1.188-1.656-2.032-2.576-2.888
				c-2.346-0.534-4.6-1.048-7.012-1.598c0.455-0.544,0.738-0.88,1.021-1.219c7.494,0.689,14.957,1.359,22.41,2.092
				c0.49,0.049,1.188,0.155,1.498,1.065c-1.812,0.4-3.852,0.26-5.637,1.95c-1.438,1.475-1.395,3.707-1.377,5.964
				c0.02,2.187,0.146,4.396-0.113,6.433c-1.881,0.416-2.283-1.275-4.363-1.636c-2.424-0.567-5.561,0.542-8.707,1.27
				c-5.053,1.168-14.1-0.749-17.967-4.155c-3.354-2.947-6.314-6.094-7.689-10.659c-3.213-10.676,3.074-20.188,13.549-22.382
				c5.133-1.076,9.822,0.042,14.445,2.23C353.584,27.413,355.301,29.157,358.312,28.665z"/>
			<path fill-rule="evenodd" clip-rule="evenodd" fill="#FFFFFF" d="M308.553,56.937c-3.482-0.726-5.723,0.205-7.906,1.058
				c-7.545,2.945-14.152,0.537-20.516-3.402c-4.883-3.022-7.168-7.801-8.131-13.146c-0.799-4.419,0.717-8.612,3.396-12.08
				c3.244-4.198,7.521-6.774,12.926-7.991c4.73-1.064,8.688,0.294,12.775,1.927c1.787,0.713,3.477,1.668,5.18,2.497
				c1.828-0.47,3.061-1.647,4.084-4.081c1.596,3.38,0.855,6.154,0.99,8.789c0.133,2.642,0.029,5.296,0.029,7.735
				c-1.062,0.492-1.623,0.294-1.766-0.369c-1.723-8.115-6.668-12.926-14.771-14.575c-0.559-0.113-1.07-0.476-0.99-0.439
				c-1.785-0.452-2.609,0.42-3.639,0.592c-4.375,0.727-6.561,3.853-7.461,7.757c-1.586,6.883-1.592,13.782,1.223,20.668
				c5.629,6.267,10.479,7.165,18.52,3.165c2.303-3.3,2.131-6.733,0.148-10.132c-1.385-0.897-2.592-1.674-4.197-1.703
				c-1.371-0.026-2.912,0.482-4.064-0.551c0.008-1.361,0.857-1.377,1.553-1.335c3.389,0.204,6.762-0.083,10.184,0.643
				c3.008,0.639,6.242,0.15,9.375,0.224c1.275,0.029,2.65-0.344,3.738,0.461c0.143,1.258-0.576,1.362-1.357,1.45
				c-4.818,0.546-5.598,1.373-5.654,6.067c-0.033,2.649-0.006,5.299-0.006,7.713C309.979,59.222,309.26,57.188,308.553,56.937z"/>
			<path fill-rule="evenodd" clip-rule="evenodd" fill="#FFFFFF" d="M156.021,23.573c-9.22,1.485-13.707,6.172-15.001,15.25
				c-0.132,0.917,0.428,2.17-1.444,2.573c-1.046-2.846-0.33-5.775-0.459-8.61c-0.135-2.973-0.031-5.956-0.031-8.665
				c0.729-1.308,1.657-1.654,2.781-1.583c7.451,0.459,14.816-1.31,22.25-0.935c4.639,0.233,9.127-1.207,13.749-0.905
				c1.014,0.067,2.036,0.01,3.312,0.01c0.344,6.464,0.057,12.609,0.223,18.712c-2.075,0.118-1.936-0.939-1.929-1.796
				c0.034-4.3-2.2-7.744-4.737-10.77c-2.476-2.952-6.002-4.241-10.416-3.039c0,2.226,0,4.58,0,6.932
				c0,6.272-0.022,12.546,0.008,18.817c0.023,4.906,1.225,6.046,6.014,6.152c1.829,0.04,3.773-0.606,5.452,0.403
				c0.073,1.335-0.706,1.462-1.448,1.437c-6.996-0.245-13.912,1.434-20.912,0.91c-2.838-0.212-5.484,1.492-8.441,0.648
				c-0.355-0.203-0.383-0.641-0.379-1.365c2.809-0.461,5.74-0.601,8.866-1.626c0.671-0.702,1.593-1.663,2.544-2.658
				C156.021,43.59,156.021,33.765,156.021,23.573z"/>
			<path fill-rule="evenodd" clip-rule="evenodd" fill="#FFFFFF" d="M202.618,22.704c-0.948,0.477-1.659,1.222-2.382,2.324
				c0,9.901,0,20.012,0,30.568c2.514-0.948,4.99-0.907,7.434-0.735c6.762,0.47,10.625-3.367,12.982-9.304
				c0.434-1.092,0.64-2.272,1.07-3.364c0.31-0.787,0.627-1.7,1.756-1.699c1.07,2.411,1.273,7.336,0.646,15.622
				c-0.849,0.862-1.954,0.505-2.951,0.524c-3.279,0.062-6.568,0.191-9.842,0.033c-8.332-0.41-16.594,1.078-24.915,0.848
				c-1.12-0.031-1.12-0.022-2.35-1.18c0.396-0.859,1.214-0.599,1.898-0.74c4.097-0.853,5.9-2.903,5.946-7.023
				c0.068-6.264-0.047-12.529,0.059-18.792c0.031-1.869-0.809-3.427-1.189-5.129c-1.645-2.385-4.514-1.695-6.684-2.443
				c-0.135-1.681,0.918-1.523,1.776-1.526c4.476-0.018,8.95-0.007,13.424-0.007c3.11,0,6.222,0,9.546,0
				C207.439,22.398,207.439,22.398,202.618,22.704z"/>
			<path fill-rule="evenodd" clip-rule="evenodd" fill="#FFFFFF" d="M224.703,8.069c-0.756-0.57-1.225-1.147-1.285-1.924
				c-0.135-1.715-1.826-2.976-1.581-5.071c2.058,0.247,2.019,2.014,2.979,3.266c0.584-1.084,1.137-2.112,1.668-3.102
				c1.745,0.432,1.157,2.282,2.244,3.344c1.432-0.644,0.535-2.99,2.535-3.328c0.537,2.722-1.23,4.671-1.852,7.177
				c-1.955-0.794-1.791-2.441-2.872-3.56C225.924,5.886,226.268,7.458,224.703,8.069z"/>
			<path fill-rule="evenodd" clip-rule="evenodd" fill="#FFFFFF" d="M111.182,7.565c0.213,0.911-0.113,1.408-0.449,1.931
				c0.417,0.589,0.838,1.181,1.257,1.776c-0.241,0.536-0.479,1.07-0.851,1.897c-1.121,0.366-2.446,0.798-4.048,1.322
				c-0.558-2.723-0.368-5.171-0.166-7.598C109.258,6.512,109.258,6.512,111.182,7.565z"/>
			<path fill-rule="evenodd" clip-rule="evenodd" fill="#FFFFFF" d="M234.268,8.841c-0.238-2.728-0.307-5.175,0.127-7.751
				c2.115,1.051,2.998,3.117,4.75,4.252c0.703-1.333-0.17-2.804,0.705-3.979c1.986,2.047,1.986,2.047,0.266,7.532
				c-1.562-0.955-2.654-2.229-3.771-3.991C235.592,6.134,236.648,8.233,234.268,8.841z"/>
			<path fill-rule="evenodd" clip-rule="evenodd" fill="#FFFFFF" d="M134.186,7.341c-0.64,1.78,0.196,3.241-0.893,4.349
				c-0.301-0.05-0.585-0.097-0.867-0.144c-0.656-4.1-0.656-4.1,0.658-6.783c1.642,0.47,2.284,2.164,3.791,3.112
				c1.033-0.771-0.415-2.969,1.843-3.351c0.881,2.437,0.602,4.765,0.146,7.086c-1.58,0.156-1.949-0.851-2.52-1.723
				C135.785,9.037,135.027,8.318,134.186,7.341z"/>
			<path fill-rule="evenodd" clip-rule="evenodd" fill="#FFFFFF" d="M152.973,10.773c-2.182-2.137-1.108-4.582-1.029-7.107
				c2.461,0.244,3.076,2.534,4.76,3.336c0.901-1.199-0.463-3.003,1.342-4.278c1.609,2.29,0.604,4.688,0.811,7.197
				c-2.631,0.134-3.169-2.285-4.886-3.13C152.955,7.87,154.188,9.573,152.973,10.773z"/>
			<path fill-rule="evenodd" clip-rule="evenodd" fill="#FFFFFF" d="M126.951,10.206c-0.651,0.626-0.015,1.807-0.988,2.292
				c-1.858-1.713-1.738-5.41,0.264-7.771c1.1-0.077,1.885,0.624,2.738,1.107c0.751,1.061,0.27,1.949-0.287,2.751
				c0.488,1.096,0.963,2.145,1.415,3.204c0.042,0.097-0.079,0.26-0.173,0.532C128.469,12.281,128.121,10.619,126.951,10.206z"/>
			<path fill-rule="evenodd" clip-rule="evenodd" fill="#FFFFFF" d="M329.527,8.664c0.49,1.279,1.391,2.157,1.451,3.554
				c-1.662,0.228-1.91-1.635-3.18-1.961c-0.596,0.285-0.357,1.841-1.967,1.241c-0.451-2.037-0.236-4.217-0.145-6.374
				C329.705,4.336,330.467,5.015,329.527,8.664z"/>
			<path fill-rule="evenodd" clip-rule="evenodd" fill="#FFFFFF" d="M295.182,2.964c1.736-0.083,1.713,0.595,1.869,1.13
				c0.113,0.409,0.242,0.815,0.355,1.18c0.941,0.264,1.787,0.39,2.627,0.007c0.154-0.921-0.367-2.337,1.797-2.08
				c-0.131,2.2-0.256,4.279-0.377,6.342c-1.549,0.18-0.877-1.576-1.838-1.829c-0.684-0.341-1.381-0.454-2.107-0.156
				c-0.803,0.569-0.078,2.103-1.752,2.544C294.578,7.646,295.428,5.301,295.182,2.964z"/>
			<path fill-rule="evenodd" clip-rule="evenodd" fill="#FFFFFF" d="M186.1,6.867c-0.547,0.673,0.216,2.31-1.754,2.065
				c-0.973-2.023,0.048-4.237-0.596-6.439c2.307-0.938,4.165-1.336,5.535,0.981C188.646,5.831,188.646,5.831,186.1,6.867z"/>
			<path fill-rule="evenodd" clip-rule="evenodd" fill="#FFFFFF" d="M337.389,9.032c0.539-1.947,1.793-3.036,3.834-3.59
				c1.305,0.1,2.502,0.658,3.449,2.239c-1.869,0.904-4.414-1.846-5.381,1.269c0.023,1.434,1.365,1.791,1.82,2.44
				c1.309,0.625,2.104-1.085,3.209-0.044c0.266,1.727-1.488,1.414-2.213,2.122C339.59,13.196,338.193,11.645,337.389,9.032z"/>
			<path fill-rule="evenodd" clip-rule="evenodd" fill="#FFFFFF" d="M277.287,6.61c0.262-1.451-0.787-3.397,1.324-4.527
				c1.467,1.786-0.812,4.759,2.26,6.023c2.918-1.111,0.891-4.016,2.061-5.881c1.658,0.467,1.404,1.833,1.475,3.07
				c0.086,1.448-0.623,2.554-1.336,3.616c-0.736,0.341-1.404,0.655-2.225,1.036C279.336,9.361,278.25,8.2,277.287,6.61z"/>
			<path fill-rule="evenodd" clip-rule="evenodd" fill="#FFFFFF" d="M181.838,9.076c-2.432-1.283-4.596-1.556-6.769,1.381
				c0.024-3.743,1.948-5.867,3.02-8.621C180.145,4.01,180.846,6.499,181.838,9.076z"/>
			<path fill-rule="evenodd" clip-rule="evenodd" fill="#FFFFFF" d="M346.148,13.25c1.012-2.399,1.939-4.601,2.98-7.066
				c2.652,2.305,2.863,5.331,4.83,7.857c-2.832,0.656-2.49-2.612-4.279-2.148C348.023,11.313,348.33,13.922,346.148,13.25z"/>
			<path fill-rule="evenodd" clip-rule="evenodd" fill="#FFFFFF" d="M169.891,3.667c-0.67,0.766-1.34,1.531-1.848,2.111
				c-0.109,1.167,0.367,1.691,1.035,2.083c1.188,0.696,2.656-0.299,3.871,0.637c-0.559,1.591-1.873,1.685-3.176,1.465
				c-1.896-0.32-3.072-1.564-3.646-3.386c0.336-2.494,1.912-3.846,4.314-4.542c0.922,0.147,1.805,0.631,2.643,1.284
				C172.646,6.153,170.982,3.08,169.891,3.667z"/>
			<path fill-rule="evenodd" clip-rule="evenodd" fill="#FFFFFF" d="M312.414,3.014c1.414,2.919,2.477,5.119,3.504,7.245
				c-2.07,1.499-1.746-1.314-3.018-1.068c-1.693-0.715-2.104,1.989-4.146,1.429C309.965,8.314,310.414,5.774,312.414,3.014z"/>
			<path fill-rule="evenodd" clip-rule="evenodd" fill="#FFFFFF" d="M196.508,8.536c-1.286,0.954-2.607,0.544-4.098,0.441
				c-0.832-2.087-0.29-4.286-0.406-6.507c1.351-1.039,2.748-0.726,4.26-0.451c-0.203,2.011-2.084,1.271-2.976,2.074
				c0.851,0.93,2.327-0.073,3.138,1.061c-0.119,2.176-2.174,0.73-3.074,1.601C194.012,7.991,195.978,6.435,196.508,8.536z"/>
			<path fill-rule="evenodd" clip-rule="evenodd" fill="#FFFFFF" d="M260.283,3.525c0.896-1.972,2.387-2.124,4.137-1.382
				c0.68,1.617-0.816,1.363-1.311,1.917c0.373,1.086,1.967,1.477,1.551,3.121c-1.764,2.6-1.764,2.6-4.24,0.492
				c0.523-0.7,1.395-0.275,2.223-0.725C262.189,5.626,260.469,5.129,260.283,3.525z"/>
			<path fill-rule="evenodd" clip-rule="evenodd" fill="#FFFFFF" d="M209.721,1.28c0.545,1.619-0.889,1.465-1.32,1.991
				c-0.793,1.798,0.7,4.041-1.634,5.689c-0.978-1.831-0.162-3.766-0.649-5.651c-0.347-0.921-2.652,0.27-2.213-2.021
				C205.848,0.873,207.832,0.871,209.721,1.28z"/>
			<path fill-rule="evenodd" clip-rule="evenodd" fill="#FFFFFF" d="M290.863,5.137c-0.381,1.608,0.311,3.287-0.525,4.653
				c-1.238,0.19-1.488-0.472-1.518-1.26c-0.041-1.165-0.01-2.334-0.084-3.499c-0.15-0.904-1.629-0.869-1.375-2.166
				c1.828,0,3.678,0,5.57,0C293.164,4.645,291.232,4.223,290.863,5.137z"/>
			<path fill-rule="evenodd" clip-rule="evenodd" fill="#FFFFFF" d="M318.361,3.945c1.928-0.222,2.725,0.686,3.605,0.973
				c0.318,1.99-1.438,0.361-1.545,0.823c-0.207,1.737,1.523,1.211,1.559,1.996c0.086,1.292-0.496,1.046-1.207,0.759
				c-0.941,0.772-0.244,2.686-2.072,3.048C318.014,9.104,318.539,6.644,318.361,3.945z"/>
			<path fill-rule="evenodd" clip-rule="evenodd" fill="#FFFFFF" d="M147.987,3.829c1.479,2.219,1.076,4.544,0.801,6.816
				c-0.927,0.188-1.522,0.077-1.543-0.695C147.189,7.913,146.841,5.846,147.987,3.829z"/>
			<path fill-rule="evenodd" clip-rule="evenodd" fill="#FFFFFF" d="M334.545,4.911c0,3.013,0,5.183,0,7.482
				C332.402,10.509,332.227,7.667,334.545,4.911z"/>
			<path fill-rule="evenodd" clip-rule="evenodd" fill="#FFFFFF" d="M459.639,73.809c-3.795-0.228-6.117-2.371-8.062-5.494
				c-1.635-2.627-2.873-5.532-4.949-7.744c-2.988-1.771-6.48-2.503-8.846-5.389c9.396,1.475,14.035,0.242,17.824-4.658
				c0.32-6.843-2.912-11.138-9.652-12.79c-7.455-1.828-15.107-2.419-22.648-3.691c-3.479-0.587-7.072-0.354-10.469-1.52
				c-0.697-0.238-1.02,0.356-0.959,1.342c2.793,0.674,5.49,1.793,6.932,4.787c0,8.727,0,17.536,0,26.344
				c-0.689,0.856-1.34,1.664-1.467,1.821c-2.348,0.856-4.09-0.062-5.477,0.899c-0.123,1.201,0.531,1.398,1.344,1.491
				c5.854,0.661,11.691,1.409,17.477,2.559c1.131,0.225,2.545,0.616,3.693-0.638c-5.217-2.797-5.217-2.797-7.102-5.332
				c0-4.015,0-7.851,0-11.626c2.971-0.633,5.459,0.152,7.732,1.139c3.914,6.211,7.461,12.374,11.486,17.933
				c8.045,2.32,11.4,2.616,13.574,1.252C459.928,74.256,459.797,73.818,459.639,73.809z M430.652,52.223
				c-0.938-0.346-2.055-0.187-3.377-0.279c-0.482-5.16-0.154-10.306-0.178-15.471c4.938,0.625,9.76,0.945,14.355,2.419
				c1.354,0.434,2.482,1.563,3.479,2.22c2.023,2.326,1.9,4.888,1.719,7.408c-0.201,2.815-1.695,4.442-4.52,4.438
				C438.307,52.949,434.422,53.595,430.652,52.223z"/>
			<path fill-rule="evenodd" clip-rule="evenodd" fill="#FFFFFF" d="M43.109,54.531c-0.215-0.383-0.551-0.696-0.943-1.18
				c-2.483-0.804-5.096-1.646-8.166-2.64c2.82-0.744,4.67-2.311,6.37-3.929c4.676-4.454,3.099-9.289-1.981-11.717
				c-2.502-1.197-5.244-1.201-7.881-0.771c-6.379,1.042-12.783,2.039-19.051,3.568c-3.078,0.752-6.497,0.178-9.27,2.225
				c0.391,0.659,0.734,0.927,1.706,0.788c4.456-0.639,6.002,0.713,6.038,5.226c0.06,7.47,0.016,14.939,0.016,22.295
				c-0.76,1.439-1.45,2.747-2.172,4.11c-1.656,0.204-3.029,1.265-4.74,1.191c-0.736-0.032-0.996,0.485-0.961,1.388
				c1.297,0.772,2.866,0.624,4.197,0.244c6.399-1.835,13.061-2.131,19.531-3.476c5.021-1.046,10.107-1.87,14.432-5.179
				C44.778,63.201,45.875,59.445,43.109,54.531z M18.352,38.391c4.498-0.679,8.84-2.053,13.689-1.319
				c3.801,5.477,2.406,11.375-3.24,13.695c-3.229,1.325-6.701,1.88-10.449,2.202C18.352,48.095,18.352,43.427,18.352,38.391z
				 M34.914,63.974c-4,6.238-10.394,6.27-16.678,7.301c0-5.311,0-10.647,0-15.979c4.029-1.909,8.229-1.321,12.346-1.377
				c2.209-0.031,3.557,1.32,4.334,3.22c0.385,0.938,0.298,2.053,1.104,2.88C35.117,61.437,35.121,62.949,34.914,63.974z"/>
			<path fill-rule="evenodd" clip-rule="evenodd" fill="#FFFFFF" d="M88.721,41.897c-2.284-6.173-6.244-10.656-12.939-12.257
				c-3.641-0.871-7.152-0.946-10.904-0.13c-8.717,1.895-17.113,8.365-18.828,17.872c-1.088,6.038,0.737,11.549,5.846,15.424
				c6.365,4.828,13.459,5.323,20.957,3.208c4.316-1.218,7.584-3.911,10.664-6.979c3.654-3.634,5.475-8.005,5.522-13.424
				C88.963,44.548,89.167,43.102,88.721,41.897z M78.082,55.521c-1.758,4.446-4.182,8.019-9.242,9.409
				c-2.371,0.651-4.33,0.565-6.388-0.483c-0.792-0.402-1.548-0.88-2.585-1.474c-5.748-8.583-5.532-17.538-0.662-26.594
				c2.854-5.299,9.391-7.004,14.443-3.966c1.182,0.71,2.082,1.606,2.752,2.824c1.588,2.894,2.812,5.863,2.678,9.259
				C78.932,48.189,79.502,51.932,78.082,55.521z"/>
			<path fill-rule="evenodd" clip-rule="evenodd" fill="#FFFFFF" d="M134.34,37.095c-2.527-7.545-8.155-12.177-16.868-12.798
				c-9.267-0.661-16.79,2.872-22.272,10.326c-6.125,8.328-4.464,18.003,4.014,24.03c5.037,3.583,10.846,4.198,16.574,3.144
				c5.062-0.93,9.787-3.073,13.488-7.167c2.367-2.618,3.811-5.619,5.375-8.778C134.684,42.998,135.301,39.962,134.34,37.095z
				 M124.896,46.091c-0.114,4.424-1.79,7.968-4.723,11.086c-0.512,0.54-1.008,1.096-1.523,1.661
				c-2.561,0.77-4.627,1.415-6.916,1.368c-3.701-0.073-6.248-1.804-7.718-5.007c-3.452-7.518-3.466-15.157,0.187-22.562
				c2.096-4.249,5.677-6.662,10.703-6.511c2.046,0.062,3.755,0.692,5.227,2.047c2.956,2.719,4.844,5.913,4.688,10.106
				C124.725,40.879,124.964,43.474,124.896,46.091z"/>
			<g>
				<path fill-rule="evenodd" clip-rule="evenodd" fill="#BF9F37" d="M285.871,74.092c-1.086,3.668,0.395,6.357-0.289,9.187
					c-0.414,1.721,1.127,3.07,3.354,3.243c-1.689,2.085-3.277,0.31-4.756,0.588c-1.557,0.293-3.209,0.064-5.082,0.064
					c0.717-1.348,2.08-1.228,2.412-2.307c0-2.458,0-4.936,0-7.81c-1.912,3.604-3.615,6.804-5.654,10.643
					c-2.018-4.125-3.684-7.535-5.504-11.259c-0.475,2.92-0.281,5.602-0.16,8.068c0.6,1.149,2.314,0.285,2.467,2.129
					c-2.316,0.814-4.619,0.553-6.912,0.118c-0.174-2.027,1.629-1.088,2.348-2.176c0-3.55,0-7.39,0-11.345
					c-0.775-0.301-1.574-0.608-2.355-0.909c0.029-0.353,0.053-0.636,0.109-1.287c1.828,0.363,3.617,1.144,5.369,0.599
					c3.215,2.798,3.992,6.703,6.139,10.373c1.818-3.357,3.52-6.499,5.287-9.765c1.613-0.834,3.346-0.124,4.926-0.388
					C288.533,74.205,285.588,73.166,285.871,74.092z"/>
				<path fill-rule="evenodd" clip-rule="evenodd" fill="#BF9F37" d="M179.432,74.724c0.213,3.256,0.096,6.414,0.021,9.503
					c-1.541,0.159-1.57-0.583-1.827-1.311c-0.536-1.511-0.61-1.483-2.843-2.008c-0.752,0.866,0.471,1.536,0.237,2.425
					c-0.212,0.802-0.046,1.706-0.046,2.338c2.447,1.168,4.051-0.394,5.85-0.743c0.982-1.409,1.961-2.814,3.095-4.441
					c0.953,1.223-0.008,2.112,0.132,2.991c0.162,1.001,0.037,2.05,0.037,3.303c-5.405,0.982-10.751-0.439-15.937,1.105
					c-0.64-2.232,2.126-1.525,2.261-2.962c0-3.557,0-7.114,0-10.58c-0.429-0.821-1.901-0.671-1.471-2.264c4.76,0,9.613,0,14.73,0
					c0.571,1.847,0.457,3.827,0.111,5.858c-2.041-0.567-1.316-2.675-2.646-3.868c-0.91-1.025-2.806,0.164-3.779-1.15
					c-0.8,0.399-1.455,0.728-2.092,1.041c-0.745,1.531,0.338,3.295-1.018,4.658C178.324,80.063,176.883,75.264,179.432,74.724z"/>
				<path fill-rule="evenodd" clip-rule="evenodd" fill="#BF9F37" d="M204.557,79.684c0.494,0.542,0.836,0.741,0.841,0.948
					c0.045,1.631,0.024,3.267,0.024,5.146c-5.201,1.943-10.58,1.29-15.895,1.137c-0.348-2.064,1.369-1.34,2.225-2.176
					c0-3.299,0-6.83,0-11.095c-0.103-0.479-1.406-0.68-2.65-1.729c5.497,0.007,10.385-2.042,15.344,0.332
					c0.546,1.48,0.131,3.051,0.24,5.141c-1.662-1.401-1.597-3.284-3.307-4.398c-1.496-0.384-3.389-0.241-5.504-0.134
					c0,2.011,0,3.882,0,5.758c2.746,0.031,2.568-3.143,4.791-4.449c-0.748,3.602-0.393,6.779-0.562,10.041
					c-1.275-1.667-1.441-4.021-4.189-4.218c-0.428,1.683-0.25,3.269-0.16,4.837C201.583,85.729,201.928,85.532,204.557,79.684z"/>
				<path fill-rule="evenodd" clip-rule="evenodd" fill="#BF9F37" d="M158.219,85.061c-1.57-1.87-1.208-4.809-4.275-4.047
					c-0.809,1.376-0.194,3.018-0.324,4.3c0.559,1.834,2.262,1.459,3.759,2.594c-3.681-0.132-6.753,0.853-9.944,0.503
					c-0.038-0.003-0.051-0.259-0.088-0.473c0.168-1.383,1.918-0.482,2.445-1.734c0-3.508,0-7.231,0-10.757
					c-0.449-1.32-2.21-0.358-2.439-1.732c0.133-0.27,0.25-0.729,0.373-0.73c5.051-0.036,10.103-0.031,15.428-0.031
					c0.54,1.756,0.169,3.832,1.025,5.558c-0.869,0.581-1.361,0.483-1.688-0.159c-0.535-1.054-1.045-2.12-1.496-3.038
					c-3.767-1.946-3.767-1.946-7.17-0.48c-0.402,1.256-0.375,2.547-0.022,3.816c0.74,0.563,1.411,0.343,2.126,0.086
					c1.498-0.538,0.554-2.592,1.962-3.195C159.098,77.725,159.211,79.887,158.219,85.061z"/>
				<path fill-rule="evenodd" clip-rule="evenodd" fill="#BF9F37" d="M137.172,85.189c-1.709-0.4-1.444-3.488-4.128-2.225
					c-0.28,1.427-0.198,2.996-0.048,4.329c1.01,1.226,2.631,0.046,3.305,1.39c0.016,1.124-0.826,1.062-1.531,1.105
					c-2.699,0.159-5.411-0.302-8.174,0.615c0.137-1.924,2.075-1.595,2.486-3.445c0-2.949,0-6.5,0-9.874
					c-0.58-1.112-2.297-0.277-2.439-2.146c5.144-0.674,10.232-1.838,15.504-1.165c0.834,3.509,0.834,3.509-0.381,6.376
					c-1.211-1.413-0.996-3.654-3.706-4.53c-1.023,0-2.911,0-4.987,0c0,1.708,0,3.278,0,5.058c2.349-0.029,2.784-1.996,4.025-3.521
					C137.584,79.989,137.504,82.562,137.172,85.189z"/>
				<path fill-rule="evenodd" clip-rule="evenodd" fill="#BF9F37" d="M452.596,98.245c-3.438,1.142-6.672-0.354-9.982-0.71
					c-4.494-0.484-8.926-1.539-13.387-2.339c-5.178-0.931-10.484-1.13-15.572-2.621c-0.557-0.162-1.186-0.077-1.783-0.086
					c-4.574-0.068-9.033-1.188-13.543-1.574c-3.238-0.278-6.375-1.177-9.658-1.188c-2.439-0.01-4.875-0.733-7.295-1.136
					c0.064-0.498,0.102-0.782,0.156-1.222C405.316,90.295,429.125,93.037,452.596,98.245z"/>
				<path fill-rule="evenodd" clip-rule="evenodd" fill="#BF9F37" d="M5.75,97.718c1.795-2.176,3.603-2.253,5.174-2.518
					c5.045-0.851,10.094-1.682,15.135-2.53c3.005-0.505,6.037-1.429,9.194-1.119c2.22,0.219,4.341-0.711,6.505-1.045
					c6.527-1.009,13.144-1.492,19.595-2.744c3.323-0.645,6.779-0.022,10.018-1.435c1.091-0.477,2.829-0.648,4.633,0.961
					c-3.716,1.071-7.054,1.173-10.225,1.456c-3.229,0.29-6.448,0.857-9.634,1.267c-3.3,0.427-6.686,0.86-9.992,1.377
					c-3.297,0.515-6.643,1.198-10.086,1.222c-3.311,0.023-6.615,1.071-9.92,1.68c-3.164,0.58-6.303,1.449-9.49,1.692
					C13.304,96.236,10.121,97.33,5.75,97.718z"/>
				<path fill-rule="evenodd" clip-rule="evenodd" fill="#BF9F37" d="M370.842,78.371c2.256-0.875,4.27,0.313,6.777,0.917
					c-3.219,1.949-5.152,4.739-7.039,7.623c0,1.312,0,2.647,0,3.782c0.555,1.763,2.188,1.538,3.285,2.191
					c-1.014,1.006-7.898,0.587-10.42-0.718c0.756-1.058,2.57-0.029,2.711-1.005c0.945-1.697,0.58-3.042,0.59-4.505
					c-2.781-2.647-3.303-7.344-8.5-8.543c4.336-1.316,6.822-1.146,9.303,0.313c-0.008,0.896-1.398,0.423-1.338,1.718
					c1.223,1.427,1.953,3.584,3.859,5.05c0.627-1.7,1.992-2.687,2.908-3.85C373.369,79.423,370.676,80.064,370.842,78.371z"/>
				<path fill-rule="evenodd" clip-rule="evenodd" fill="#BF9F37" d="M338.236,79.04c-0.75-1.963-2.848-2.462-4.367-3.84
					c2.484-1.892,4.436,1.215,6.631-0.07c2.57,3.979,5.754,6.89,8.988,10.278c0.566-2.164,0.295-4.017,0.27-5.638
					c-0.771-1.723-2.328-2.386-4.395-3.959c3.602-0.043,6.051,0.883,8.752,0.351c-0.314,2.078-2.223,1.765-2.865,2.845
					c-0.072,0.128-0.209,0.254-0.213,0.386c-0.139,3.979-0.264,7.961-0.383,11.801c-0.932,0.421-1.236,0.057-1.686-0.426
					c-3.629-3.89-6.361-8.604-10.777-11.77L338.236,79.04z"/>
				<path fill-rule="evenodd" clip-rule="evenodd" fill="#BF9F37" d="M89.67,77.291c1.797,0.604,3.314,1.117,4.803,1.619
					c0.742-0.495,1.438-0.958,2.338-1.559c0.594,2.626-0.303,5.208,1.117,7.36c-1.221,0.733-1.516,0.261-1.875-0.54
					c-1.717-3.819-3.247-4.826-7.489-5.035c-0.397,0.334-0.873,0.693-1.298,1.103c-0.317,0.302-0.569,0.673-0.896,1.07
					c0,3.23,0,6.484,0,9.771c5.5,3.539,7.934-0.975,11.312-4.737c-0.576,3.761-2.797,5.207-4.637,6.82
					c-4.475,0.752-8.465,0.458-11.092-3.836C81.174,82.681,82.961,79.836,89.67,77.291z"/>
				<path fill-rule="evenodd" clip-rule="evenodd" fill="#BF9F37" d="M229.803,87.046c-6.877-2.375-9.803-5.462-9.023-9.497
					c0.41-2.127,1.689-3.775,3.381-5.095c2.031-1.58,2.568-1.667,7.678-1.408c0.568,0.43,1.164,0.878,1.762,1.331
					c1.133,0.104,1.389-1.586,2.926-1.214c0.701,2.134,0.371,4.412,0.334,7.002c-2.025-0.898-1.916-2.858-3.463-4.392
					c-0.859-0.452-2.291-1.206-3.468-1.826c-1.632-0.244-2.495,0.685-3.411,1.196c-1.635,3.654-1.701,7.232,0.006,10.849
					c4.434,2.309,6.105,1.818,9.801-2.933C236.512,84.273,236.029,84.724,229.803,87.046z"/>
				<path fill-rule="evenodd" clip-rule="evenodd" fill="#BF9F37" d="M338.191,78.998c0,3.096,0,6.192,0,9.028
					c1.121,1.199,3.023,0.552,3.375,2.588c-2.57-0.101-5.17,0.73-7.551-0.866c0.158-1.283,1.164-0.704,1.914-1.201
					c1.078-1.862,1.506-4.066,1.422-6.467c-0.035-1.019-0.711-2.422,0.885-3.04L338.191,78.998z"/>
				<path fill-rule="evenodd" clip-rule="evenodd" fill="#BF9F37" d="M120.033,79.29c-3.424-3.627-5.802-4.836-9.373-3.763
					c-4.335,1.306-7.586,3.979-8.078,9.167c2.006,5.766,4.006,7.052,10.881,6.804c5.55-2.792,5.55-2.792,7.746-8.504
					C120.822,81.776,120.423,80.515,120.033,79.29z M111.896,90.381c-0.877-0.279-1.714-0.548-2.671-0.854
					c-0.63-0.666-1.198-1.538-1.373-2.575c-0.174-1.02-0.123-2.081-0.699-2.974c0.904-2.156,0.525-4.817,2.826-6.522
					c1.301-0.404,2.773-0.296,4.234-0.108C118.461,82.23,117.53,87.314,111.896,90.381z"/>
				<path fill-rule="evenodd" clip-rule="evenodd" fill="#BF9F37" d="M258.189,73.024c-1.336-0.644-2.922-1.405-4.287-2.062
					c-1.746,0-3.225,0-4.596,0c-1.547,0.793-2.988,1.531-4.707,2.413c-0.68,1.375-1.199,2.601-1.867,3.738
					c-0.578,0.982-0.689,2.047-0.346,2.996c2.043,5.688,9.072,9.642,15.32,4.685c1.992-1.58,2.746-3.724,3.254-5.973
					C260.051,76.938,260.031,74.706,258.189,73.024z M253.561,85.058c-1.117,0.413-2.297,0.197-3.648,0.149
					c-3.754-4.075-3.893-6.288-0.943-12.113c0.807-0.267,1.635-0.54,2.689-0.887c0.443,0.14,1.117,0.336,1.781,0.567
					c0.539,0.187,1.064,0.417,1.455,0.568C257.422,79.587,257.225,81.23,253.561,85.058z"/>
				<path fill-rule="evenodd" clip-rule="evenodd" fill="#BF9F37" d="M310.391,77.05c-0.797-1.063-0.842-2.428-2.131-3.121
					c-2.359-1.067-4.971-1.33-7.666-1.245c-2.205,0.07-4.43,0.102-6.57-0.651c-0.094-0.033-0.342,0.368-0.559,0.617
					c0.166,1.368,2.115,1.019,2.367,2.588c0,3.146,0,6.545,0,9.512c-0.703,1.714-2.32,1.042-3.082,1.978
					c2.256,1.531,4.332,1.711,10.342,0.869c-1.219-0.714-2.303-1.345-3.314-1.937c-0.039-1.339-0.379-2.521,0.332-3.868
					C303.891,81.422,308.734,83.013,310.391,77.05z M299.623,74.059c2.484-0.947,4.182,0.176,5.809,1.279
					c0.695,1.419,0.602,2.667-0.023,3.918c-1.75,1.083-3.521,0.566-5.424,0.598C299.379,77.887,299.85,75.999,299.623,74.059z"/>
				<path fill-rule="evenodd" clip-rule="evenodd" fill="#BF9F37" d="M327.246,87.946c-2.264-5.104-4.236-9.542-6.41-14.438
					c-1.932,1.826-2.348,3.938-3.334,5.714c-0.932,1.675-1.914,3.359-2.545,5.155c-0.656,1.863-2.418,2.56-4.092,3.994
					c2.529,0.769,4.504,0.642,6.527,0.417c-0.16-1.29-1.645-1.59-1.447-2.858c0.227-0.719,0.76-1.18,1.973-1.604
					c1.16,0.779,2.93,0.824,4.586,1.36c0.113,0.037,0.182,0.219,0.326,0.401c-0.074,0.488,0.346,1.092-0.295,1.62
					c-0.629,0.199-1.312,0.415-2.234,0.706c2.49,2.478,5.445,0.977,8.064,1.352c0.209,0.031,0.469-0.265,0.695-0.401
					C328.695,88.242,327.422,88.161,327.246,87.946z M317.73,83.059c-0.422-1.739,0.684-2.795,1.723-4.654
					c0.725,1.958,1.197,3.234,1.678,4.534C319.967,83.7,318.91,83.655,317.73,83.059z"/>
			</g>
			<path fill-rule="evenodd" clip-rule="evenodd" fill="#FFFFFF" d="M269.74,1.979c-3.396,3.26-3.398,3.8-0.059,7.008
				c1.145,0.295,2.307,0.281,3.479-0.03c1.057-0.8,2.152-1.571,2.307-3.172C274.627,2.959,272.953,1.306,269.74,1.979z
				 M269.75,7.106c-0.861-1.218-0.676-2.326,0.518-3.03c1.445-0.853,2.51-0.168,3.318,1.419
				C272.723,7.583,271.279,7.418,269.75,7.106z"/>
			<path fill-rule="evenodd" clip-rule="evenodd" fill="#FFFFFF" d="M219.553,2.942c-1.24-1.116-2.469-1.859-4.016-1.977
				c-1.352,0.476-2.215,1.434-2.926,2.663c0,0.992,0,2.022,0,2.987c0.852,1.152,1.66,2.205,3.363,2.525
				c1.229-0.614,2.912-0.831,3.809-2.46C219.992,5.543,220.095,4.378,219.553,2.942z M217.964,5.258
				c-0.196,1.646-1.29,2.218-2.966,1.785c-0.355-0.588-0.731-1.217-1.104-1.838c0.277-1.128,1.234-1.6,1.812-2.265
				C217.375,3.03,218.128,3.88,217.964,5.258z"/>
			<path fill-rule="evenodd" clip-rule="evenodd" fill="#FFFFFF" d="M117.541,5.441c-1.523,0.872-2.943,2.048-3.613,3.819
				c0.432,2.458,1.703,3.849,3.771,4.173c2.379-0.661,3.827-1.991,4.383-4.462C121.232,6.883,119.994,5.571,117.541,5.441z
				 M117.934,11.578c-0.891,0.031-1.443-0.451-1.781-1.105c-0.539-1.048-0.282-2.037,0.682-2.671
				C118.2,6.9,119.3,7.36,120.227,8.888C119.819,10.358,118.928,11.043,117.934,11.578z"/>
		</g>
		<circle fill="#FFFFFF" cx="251.376" cy="5.388" r="0.993"/>
	</g>
</g>
</svg>
